<svg width="51" height="51" viewBox="0 0 51 51" fill="none" xmlns="http://www.w3.org/2000/svg">
<g filter="url(#filter0_d_85_428)">
<mask id="mask0_85_428" style="mask-type:alpha" maskUnits="userSpaceOnUse" x="7" y="5" width="37" height="37">
<rect x="7" y="5" width="37" height="37" fill="#D9D9D9"/>
</mask>
<g mask="url(#mask0_85_428)">
<path d="M19.3333 32.7499C18.4854 32.7499 17.7595 32.448 17.1557 31.8442C16.5519 31.2404 16.25 30.5145 16.25 29.6666V11.1666C16.25 10.3187 16.5519 9.5928 17.1557 8.98898C17.7595 8.38516 18.4854 8.08325 19.3333 8.08325H37.8333C38.6812 8.08325 39.4071 8.38516 40.0109 8.98898C40.6147 9.5928 40.9166 10.3187 40.9166 11.1666V29.6666C40.9166 30.5145 40.6147 31.2404 40.0109 31.8442C39.4071 32.448 38.6812 32.7499 37.8333 32.7499H19.3333ZM19.3333 14.2499H37.8333V11.1666H19.3333V14.2499ZM13.1666 38.9166C12.3187 38.9166 11.5929 38.6147 10.989 38.0109C10.3852 37.407 10.0833 36.6812 10.0833 35.8333V14.2499H13.1666V35.8333H34.75V38.9166H13.1666Z" fill="#0057FF"/>
</g>
</g>
<defs>
<filter id="filter0_d_85_428" x="0.083313" y="0.083252" width="50.8333" height="50.8333" filterUnits="userSpaceOnUse" color-interpolation-filters="sRGB">
<feFlood flood-opacity="0" result="BackgroundImageFix"/>
<feColorMatrix in="SourceAlpha" type="matrix" values="0 0 0 0 0 0 0 0 0 0 0 0 0 0 0 0 0 0 127 0" result="hardAlpha"/>
<feOffset dy="2"/>
<feGaussianBlur stdDeviation="5"/>
<feComposite in2="hardAlpha" operator="out"/>
<feColorMatrix type="matrix" values="0 0 0 0 0 0 0 0 0 0.34 0 0 0 0 1 0 0 0 0.4 0"/>
<feBlend mode="normal" in2="BackgroundImageFix" result="effect1_dropShadow_85_428"/>
<feBlend mode="normal" in="SourceGraphic" in2="effect1_dropShadow_85_428" result="shape"/>
</filter>
</defs>
</svg>
