<svg width="61" height="58" viewBox="0 0 61 58" fill="none" xmlns="http://www.w3.org/2000/svg">
<g filter="url(#filter0_d_191_477)">
<mask id="mask0_191_477" style="mask-type:alpha" maskUnits="userSpaceOnUse" x="8" y="4" width="45" height="45">
<rect x="8" y="4" width="45" height="45" fill="#D9D9D9"/>
</mask>
<g mask="url(#mask0_191_477)">
<path d="M30.4999 45.25C28.1562 45.25 25.9609 44.8047 23.914 43.9141C21.8671 43.0234 20.0859 41.8203 18.5703 40.3047C17.0546 38.7891 15.8515 37.0078 14.9609 34.9609C14.0703 32.9141 13.6249 30.7188 13.6249 28.375C13.6249 26.0313 14.0703 23.8359 14.9609 21.7891C15.8515 19.7422 17.0546 17.9609 18.5703 16.4453C20.0859 14.9297 21.8671 13.7266 23.914 12.8359C25.9609 11.9453 28.1562 11.5 30.4999 11.5C32.8437 11.5 35.039 11.9453 37.0859 12.8359C39.1328 13.7266 40.914 14.9297 42.4296 16.4453C43.9453 17.9609 45.1484 19.7422 46.039 21.7891C46.9296 23.8359 47.3749 26.0313 47.3749 28.375C47.3749 30.7188 46.9296 32.9141 46.039 34.9609C45.1484 37.0078 43.9453 38.7891 42.4296 40.3047C40.914 41.8203 39.1328 43.0234 37.0859 43.9141C35.039 44.8047 32.8437 45.25 30.4999 45.25ZM35.7499 36.25L38.3749 33.625L32.3749 27.625V19H28.6249V29.125L35.7499 36.25ZM18.4999 8.40625L21.1249 11.0312L13.1562 19L10.5312 16.375L18.4999 8.40625ZM42.4999 8.40625L50.4687 16.375L47.8437 19L39.8749 11.0312L42.4999 8.40625Z" fill="#0057FF"/>
</g>
</g>
<defs>
<filter id="filter0_d_191_477" x="-2" y="-4" width="65" height="65" filterUnits="userSpaceOnUse" color-interpolation-filters="sRGB">
<feFlood flood-opacity="0" result="BackgroundImageFix"/>
<feColorMatrix in="SourceAlpha" type="matrix" values="0 0 0 0 0 0 0 0 0 0 0 0 0 0 0 0 0 0 127 0" result="hardAlpha"/>
<feOffset dy="2"/>
<feGaussianBlur stdDeviation="5"/>
<feComposite in2="hardAlpha" operator="out"/>
<feColorMatrix type="matrix" values="0 0 0 0 0 0 0 0 0 0.34 0 0 0 0 1 0 0 0 0.4 0"/>
<feBlend mode="normal" in2="BackgroundImageFix" result="effect1_dropShadow_191_477"/>
<feBlend mode="normal" in="SourceGraphic" in2="effect1_dropShadow_191_477" result="shape"/>
</filter>
</defs>
</svg>
