<svg width="56" height="56" viewBox="0 0 56 56" fill="none" xmlns="http://www.w3.org/2000/svg">
<g filter="url(#filter0_d_191_491)">
<mask id="mask0_191_491" style="mask-type:alpha" maskUnits="userSpaceOnUse" x="5" y="4" width="45" height="45">
<rect x="5" y="4" width="45" height="45" fill="#D9D9D9"/>
</mask>
<g mask="url(#mask0_191_491)">
<path d="M38.3401 26.2537C37.1685 27.4253 35.269 27.4253 34.0974 26.2537L27.7463 19.9026C26.5747 18.731 26.5747 16.8315 27.7463 15.6599L34.0974 9.30882C35.269 8.13725 37.1685 8.13725 38.3401 9.30882L44.6912 15.6599C45.8628 16.8315 45.8628 18.731 44.6912 19.9026L38.3401 26.2537ZM13.625 24.625C11.9681 24.625 10.625 23.2819 10.625 21.625V12.625C10.625 10.9681 11.9681 9.625 13.625 9.625H22.625C24.2819 9.625 25.625 10.9681 25.625 12.625V21.625C25.625 23.2819 24.2819 24.625 22.625 24.625H13.625ZM32.375 43.375C30.7181 43.375 29.375 42.0319 29.375 40.375V31.375C29.375 29.7181 30.7181 28.375 32.375 28.375H41.375C43.0319 28.375 44.375 29.7181 44.375 31.375V40.375C44.375 42.0319 43.0319 43.375 41.375 43.375H32.375ZM13.625 43.375C11.9681 43.375 10.625 42.0319 10.625 40.375V31.375C10.625 29.7181 11.9681 28.375 13.625 28.375H22.625C24.2819 28.375 25.625 29.7181 25.625 31.375V40.375C25.625 42.0319 24.2819 43.375 22.625 43.375H13.625Z" fill="#0057FF"/>
</g>
</g>
<defs>
<filter id="filter0_d_191_491" x="-5" y="-4" width="65" height="65" filterUnits="userSpaceOnUse" color-interpolation-filters="sRGB">
<feFlood flood-opacity="0" result="BackgroundImageFix"/>
<feColorMatrix in="SourceAlpha" type="matrix" values="0 0 0 0 0 0 0 0 0 0 0 0 0 0 0 0 0 0 127 0" result="hardAlpha"/>
<feOffset dy="2"/>
<feGaussianBlur stdDeviation="5"/>
<feComposite in2="hardAlpha" operator="out"/>
<feColorMatrix type="matrix" values="0 0 0 0 0 0 0 0 0 0.34 0 0 0 0 1 0 0 0 0.4 0"/>
<feBlend mode="normal" in2="BackgroundImageFix" result="effect1_dropShadow_191_491"/>
<feBlend mode="normal" in="SourceGraphic" in2="effect1_dropShadow_191_491" result="shape"/>
</filter>
</defs>
</svg>
