<svg width="13" height="13" viewBox="0 0 13 13" fill="none" xmlns="http://www.w3.org/2000/svg">
<path d="M1.04969 11.3182C0.756796 11.6111 0.756795 12.086 1.04969 12.3789C1.34258 12.6718 1.81746 12.6718 2.11035 12.3789L1.04969 11.3182ZM11.8078 2.68144C12.1007 2.38855 12.1007 1.91367 11.8078 1.62078C11.5149 1.32789 11.04 1.32789 10.7472 1.62078L11.8078 2.68144ZM5.81931 0.795024C5.4051 0.796873 5.07082 1.13415 5.07267 1.54836C5.07451 1.96257 5.4118 2.29686 5.826 2.29501L5.81931 0.795024ZM7.95021 1.53552L7.95355 2.28552L7.95021 1.53552ZM11.8931 5.47838L12.6431 5.48173L11.8931 5.47838ZM11.1336 7.60259C11.1317 8.0168 11.466 8.35408 11.8802 8.35592C12.2944 8.35777 12.6317 8.02349 12.6336 7.60928L11.1336 7.60259ZM11.0755 1.97325L11.5345 1.38013L11.5345 1.38013L11.0755 1.97325ZM11.4553 2.35307L12.0485 1.89405L12.0485 1.89405L11.4553 2.35307ZM2.11035 12.3789L11.8078 2.68144L10.7472 1.62078L1.04969 11.3182L2.11035 12.3789ZM5.826 2.29501L7.95355 2.28552L7.94686 0.785532L5.81931 0.795024L5.826 2.29501ZM11.1431 5.47504L11.1336 7.60259L12.6336 7.60928L12.6431 5.48173L11.1431 5.47504ZM7.95355 2.28552C8.81953 2.28165 9.40563 2.28017 9.85009 2.32871C10.2795 2.3756 10.4806 2.46124 10.6165 2.56638L11.5345 1.38013C11.0901 1.03619 10.577 0.899173 10.0129 0.837577C9.46397 0.777627 8.77757 0.781826 7.94686 0.785532L7.95355 2.28552ZM12.6431 5.48173C12.6468 4.65102 12.651 3.96462 12.591 3.41566C12.5294 2.85162 12.3924 2.33848 12.0485 1.89405L10.8622 2.81209C10.9674 2.94796 11.053 3.14913 11.0999 3.5785C11.1484 4.02296 11.1469 4.60906 11.1431 5.47504L12.6431 5.48173ZM10.6165 2.56638C10.7085 2.63757 10.791 2.72011 10.8622 2.81209L12.0485 1.89405C11.8996 1.70168 11.7269 1.52901 11.5345 1.38013L10.6165 2.56638Z" fill="black"/>
</svg>
