<svg width="50" height="49" viewBox="0 0 50 49" fill="none" xmlns="http://www.w3.org/2000/svg">
<g filter="url(#filter0_d_140_682)">
<mask id="mask0_140_682" style="mask-type:alpha" maskUnits="userSpaceOnUse" x="6" y="4" width="37" height="37">
<rect x="6" y="4" width="37" height="37" fill="#D9D9D9"/>
</mask>
<g mask="url(#mask0_140_682)">
<path d="M12.1667 36.375V29.8229L32.4781 9.55C32.7865 9.24167 33.1333 9.01042 33.5187 8.85625C33.9042 8.70208 34.2896 8.625 34.675 8.625C35.0861 8.625 35.478 8.70208 35.8505 8.85625C36.2231 9.01042 36.5507 9.24167 36.8333 9.55L38.9917 11.7083C39.3 11.991 39.5312 12.3186 39.6854 12.6911C39.8396 13.0637 39.9167 13.4556 39.9167 13.8667C39.9167 14.2521 39.8396 14.6375 39.6854 15.0229C39.5312 15.4083 39.3 15.7552 38.9917 16.0635L18.7188 36.375H12.1667ZM34.7521 15.9865L36.8333 13.9052L34.6365 11.7083L32.5552 13.7896L34.7521 15.9865ZM27.5833 36.375C29.4847 36.375 31.2448 35.8997 32.8635 34.949C34.4823 33.9983 35.2917 32.675 35.2917 30.9792C35.2917 30.0542 35.0476 29.2576 34.5594 28.5896C34.0712 27.9215 33.416 27.3434 32.5938 26.8552L30.3198 29.1292C30.9108 29.3861 31.3733 29.6688 31.7073 29.9771C32.0413 30.2854 32.2083 30.6194 32.2083 30.9792C32.2083 31.5701 31.7394 32.1033 30.8016 32.5786C29.8637 33.054 28.791 33.2917 27.5833 33.2917C27.1465 33.2917 26.7804 33.4394 26.4849 33.7349C26.1894 34.0304 26.0417 34.3965 26.0417 34.8333C26.0417 35.2701 26.1894 35.6363 26.4849 35.9318C26.7804 36.2273 27.1465 36.375 27.5833 36.375ZM13.0531 24.5813L15.3656 22.2688C14.8517 22.0632 14.447 21.8512 14.1516 21.6328C13.8561 21.4144 13.7083 21.1896 13.7083 20.9583C13.7083 20.65 13.9396 20.3417 14.4021 20.0333C14.8646 19.725 15.841 19.2497 17.3312 18.6073C19.5924 17.6309 21.0955 16.7444 21.8406 15.9479C22.5858 15.1514 22.9583 14.2521 22.9583 13.25C22.9583 11.8368 22.3931 10.7127 21.2625 9.8776C20.1319 9.04253 18.6417 8.625 16.7917 8.625C15.6354 8.625 14.6012 8.83056 13.6891 9.24167C12.7769 9.65278 12.0767 10.1538 11.5885 10.7448C11.3059 11.0788 11.1903 11.4514 11.2417 11.8625C11.2931 12.2736 11.4858 12.6076 11.8198 12.8646C12.1538 13.1472 12.5264 13.2628 12.9375 13.2115C13.3486 13.1601 13.6955 12.9931 13.9781 12.7104C14.3378 12.3507 14.7361 12.0938 15.1729 11.9396C15.6097 11.7854 16.1493 11.7083 16.7917 11.7083C17.8451 11.7083 18.6224 11.8625 19.1234 12.1708C19.6245 12.4792 19.875 12.8389 19.875 13.25C19.875 13.6097 19.6502 13.9373 19.2005 14.2328C18.7509 14.5283 17.7167 15.0486 16.0979 15.7937C14.0424 16.6931 12.6163 17.5089 11.8198 18.2411C11.0233 18.9734 10.625 19.8792 10.625 20.9583C10.625 21.7806 10.8434 22.4807 11.2802 23.0589C11.717 23.637 12.308 24.1444 13.0531 24.5813Z" fill="#0057FF"/>
</g>
</g>
<defs>
<filter id="filter0_d_140_682" x="-4" y="-4" width="57" height="57" filterUnits="userSpaceOnUse" color-interpolation-filters="sRGB">
<feFlood flood-opacity="0" result="BackgroundImageFix"/>
<feColorMatrix in="SourceAlpha" type="matrix" values="0 0 0 0 0 0 0 0 0 0 0 0 0 0 0 0 0 0 127 0" result="hardAlpha"/>
<feOffset dy="2"/>
<feGaussianBlur stdDeviation="5"/>
<feComposite in2="hardAlpha" operator="out"/>
<feColorMatrix type="matrix" values="0 0 0 0 0 0 0 0 0 0.34 0 0 0 0 1 0 0 0 0.4 0"/>
<feBlend mode="normal" in2="BackgroundImageFix" result="effect1_dropShadow_140_682"/>
<feBlend mode="normal" in="SourceGraphic" in2="effect1_dropShadow_140_682" result="shape"/>
</filter>
</defs>
</svg>
