<svg width="44" height="43" viewBox="0 0 44 43" fill="none" xmlns="http://www.w3.org/2000/svg">
<g opacity="0.5" filter="url(#filter0_d_140_692)">
<mask id="mask0_140_692" style="mask-type:alpha" maskUnits="userSpaceOnUse" x="7" y="5" width="29" height="29">
<rect x="7" y="5" width="29" height="29" fill="#D9D9D9"/>
</mask>
<g mask="url(#mask0_140_692)">
<path d="M11.8333 30.375V25.2396L27.7531 9.35C27.9948 9.10833 28.2667 8.92708 28.5687 8.80625C28.8708 8.68542 29.1729 8.625 29.475 8.625C29.7972 8.625 30.1043 8.68542 30.3964 8.80625C30.6884 8.92708 30.9451 9.10833 31.1667 9.35L32.8583 11.0417C33.1 11.2632 33.2812 11.52 33.4021 11.812C33.5229 12.104 33.5833 12.4111 33.5833 12.7333C33.5833 13.0354 33.5229 13.3375 33.4021 13.6396C33.2812 13.9417 33.1 14.2135 32.8583 14.4552L16.9687 30.375H11.8333ZM29.5354 14.3948L31.1667 12.7635L29.4448 11.0417L27.8135 12.6729L29.5354 14.3948ZM23.9167 30.375C25.4069 30.375 26.7865 30.0024 28.0552 29.2573C29.324 28.5122 29.9583 27.475 29.9583 26.1458C29.9583 25.4208 29.767 24.7965 29.3844 24.2729C29.0017 23.7493 28.4882 23.2962 27.8437 22.9135L26.0615 24.6958C26.5247 24.8972 26.8872 25.1188 27.149 25.3604C27.4108 25.6021 27.5417 25.8639 27.5417 26.1458C27.5417 26.609 27.1741 27.0269 26.4391 27.3995C25.704 27.772 24.8632 27.9583 23.9167 27.9583C23.5743 27.9583 23.2873 28.0741 23.0557 28.3057C22.8241 28.5373 22.7083 28.8243 22.7083 29.1667C22.7083 29.509 22.8241 29.796 23.0557 30.0276C23.2873 30.2592 23.5743 30.375 23.9167 30.375ZM12.5281 21.1313L14.3406 19.3188C13.9378 19.1576 13.6207 18.9915 13.3891 18.8203C13.1575 18.6491 13.0417 18.4729 13.0417 18.2917C13.0417 18.05 13.2229 17.8083 13.5854 17.5667C13.9479 17.325 14.7132 16.9524 15.8812 16.449C17.6535 15.6837 18.8316 14.9889 19.4156 14.3646C19.9997 13.7403 20.2917 13.0354 20.2917 12.25C20.2917 11.1424 19.8486 10.2613 18.9625 9.60677C18.0764 8.95226 16.9083 8.625 15.4583 8.625C14.5521 8.625 13.7415 8.78611 13.0266 9.10833C12.3116 9.43056 11.7628 9.82326 11.3802 10.2865C11.1587 10.5483 11.0681 10.8403 11.1083 11.1625C11.1486 11.4847 11.2997 11.7465 11.5615 11.9479C11.8233 12.1694 12.1153 12.2601 12.4375 12.2198C12.7597 12.1795 13.0316 12.0486 13.2531 11.8271C13.5351 11.5451 13.8472 11.3438 14.1896 11.2229C14.5319 11.1021 14.9549 11.0417 15.4583 11.0417C16.284 11.0417 16.8932 11.1625 17.2859 11.4042C17.6786 11.6458 17.875 11.9278 17.875 12.25C17.875 12.5319 17.6988 12.7887 17.3464 13.0203C16.9939 13.2519 16.1833 13.6597 14.9146 14.2438C13.3035 14.9486 12.1858 15.588 11.5615 16.162C10.9372 16.7359 10.625 17.4458 10.625 18.2917C10.625 18.9361 10.7962 19.4849 11.1385 19.938C11.4809 20.3911 11.9441 20.7889 12.5281 21.1313Z" fill="#0057FF"/>
</g>
</g>
<defs>
<filter id="filter0_d_140_692" x="-3" y="-3" width="49" height="49" filterUnits="userSpaceOnUse" color-interpolation-filters="sRGB">
<feFlood flood-opacity="0" result="BackgroundImageFix"/>
<feColorMatrix in="SourceAlpha" type="matrix" values="0 0 0 0 0 0 0 0 0 0 0 0 0 0 0 0 0 0 127 0" result="hardAlpha"/>
<feOffset dy="2"/>
<feGaussianBlur stdDeviation="5"/>
<feComposite in2="hardAlpha" operator="out"/>
<feColorMatrix type="matrix" values="0 0 0 0 0 0 0 0 0 0.34 0 0 0 0 1 0 0 0 0.4 0"/>
<feBlend mode="normal" in2="BackgroundImageFix" result="effect1_dropShadow_140_692"/>
<feBlend mode="normal" in="SourceGraphic" in2="effect1_dropShadow_140_692" result="shape"/>
</filter>
</defs>
</svg>
