<svg width="24" height="24" viewBox="0 0 24 24" fill="none" xmlns="http://www.w3.org/2000/svg">
<mask id="mask0_280_2368" style="mask-type:alpha" maskUnits="userSpaceOnUse" x="0" y="0" width="24" height="24">
<rect width="24" height="24" fill="#D9D9D9"/>
</mask>
<g mask="url(#mask0_280_2368)">
<path d="M9.22482 11.7993C8.97016 11.7993 8.75499 11.7126 8.57932 11.5391C8.40366 11.3654 8.31582 11.1503 8.31582 10.8938C8.31582 10.6373 8.40341 10.4228 8.57857 10.2503C8.75357 10.0778 8.97049 9.99156 9.22932 9.99156C9.48266 9.99156 9.69507 10.0784 9.86657 10.2521C10.0379 10.4256 10.1236 10.6406 10.1236 10.8973C10.1236 11.1538 10.0374 11.3683 9.86507 11.5408C9.69291 11.7131 9.47949 11.7993 9.22482 11.7993ZM14.0546 11.7993C13.7981 11.7993 13.5836 11.7126 13.4111 11.5391C13.2386 11.3654 13.1523 11.1503 13.1523 10.8938C13.1523 10.6373 13.2392 10.4228 13.4128 10.2503C13.5863 10.0778 13.8014 9.99156 14.0581 9.99156C14.3146 9.99156 14.5291 10.0784 14.7016 10.2521C14.8739 10.4256 14.9601 10.6406 14.9601 10.8973C14.9601 11.1538 14.8733 11.3683 14.6998 11.5408C14.5262 11.7131 14.3111 11.7993 14.0546 11.7993ZM8.61407 15.1648L7.51982 16.2493C6.48899 15.5736 5.66849 14.6891 5.05832 13.5956C4.44799 12.5019 4.14282 11.2974 4.14282 9.98206C4.14282 7.88839 4.86924 6.11497 6.32207 4.66181C7.77491 3.20864 9.54799 2.48206 11.6413 2.48206C13.7347 2.48206 15.5082 3.20864 16.9621 4.66181C18.4159 6.11497 19.1428 7.88839 19.1428 9.98206C19.1428 11.2974 18.8377 12.5019 18.2273 13.5956C17.6172 14.6891 16.7967 15.5736 15.7658 16.2493L14.6716 15.1648C15.5639 14.6378 16.2822 13.9216 16.8266 13.0161C17.3707 12.1106 17.6428 11.0992 17.6428 9.98206C17.6428 9.76006 17.6297 9.54814 17.6033 9.34631C17.5772 9.14447 17.5377 8.93589 17.4851 8.72056C17.3954 8.73972 17.3041 8.75414 17.2111 8.76381C17.1181 8.77347 17.0267 8.77831 16.9371 8.77831C15.7357 8.87314 14.5842 8.70197 13.4823 8.26481C12.3803 7.82764 11.4217 7.16739 10.6063 6.28406C10.0563 7.18906 9.34924 7.95214 8.48507 8.57331C7.62107 9.19447 6.67366 9.62556 5.64282 9.86656V9.89556C5.61582 11.0251 5.87707 12.0539 6.42657 12.9821C6.97591 13.9102 7.70507 14.6378 8.61407 15.1648ZM10.8928 22.7321V18.2108L9.04282 20.0358L7.99857 18.9821L11.6428 15.3378L15.2871 18.9821L14.2428 20.0358L12.3928 18.2108V22.7321H10.8928Z" fill="#ABABAB"/>
</g>
</svg>
