<svg width="24" height="24" viewBox="0 0 24 24" fill="none" xmlns="http://www.w3.org/2000/svg">
<mask id="mask0_280_2364" style="mask-type:alpha" maskUnits="userSpaceOnUse" x="0" y="0" width="24" height="24">
<rect width="24" height="24" fill="#D9D9D9"/>
</mask>
<g mask="url(#mask0_280_2364)">
<path d="M9.13498 12.7993C8.88031 12.7993 8.66515 12.7126 8.48948 12.5391C8.31381 12.3654 8.22598 12.1503 8.22598 11.8938C8.22598 11.6373 8.31356 11.4228 8.48873 11.2503C8.66373 11.0778 8.88064 10.9916 9.13948 10.9916C9.39281 10.9916 9.60523 11.0784 9.77673 11.2521C9.94806 11.4256 10.0337 11.6406 10.0337 11.8973C10.0337 12.1538 9.94756 12.3683 9.77523 12.5408C9.60306 12.7131 9.38965 12.7993 9.13498 12.7993ZM13.9647 12.7993C13.7082 12.7993 13.4937 12.7126 13.3212 12.5391C13.1487 12.3654 13.0625 12.1503 13.0625 11.8938C13.0625 11.6373 13.1493 11.4228 13.323 11.2503C13.4965 11.0778 13.7116 10.9916 13.9682 10.9916C14.2247 10.9916 14.4392 11.0784 14.6117 11.2521C14.7841 11.4256 14.8702 11.6406 14.8702 11.8973C14.8702 12.1538 14.7835 12.3683 14.61 12.5408C14.4363 12.7131 14.2212 12.7993 13.9647 12.7993ZM8.52423 15.1648L7.42998 16.2493C6.39914 15.5736 5.57864 14.6891 4.96848 13.5956C4.35814 12.5019 4.05298 11.2974 4.05298 9.98206C4.05298 7.88839 4.7794 6.11497 6.23223 4.66181C7.68506 3.20864 9.45815 2.48206 11.5515 2.48206C13.6448 2.48206 15.4184 3.20864 16.8722 4.66181C18.3261 6.11497 19.053 7.88839 19.053 9.98206C19.053 11.2974 18.7478 12.5019 18.1375 13.5956C17.5273 14.6891 16.7068 15.5736 15.676 16.2493L14.5817 15.1648C15.4741 14.6378 16.1924 13.9216 16.7367 13.0161C17.2809 12.1106 17.553 11.0992 17.553 9.98206C17.553 9.76006 17.5398 9.54814 17.5135 9.34631C17.4873 9.14447 17.4479 8.93589 17.3952 8.72056C17.3056 8.73972 17.2142 8.75414 17.1212 8.76381C17.0282 8.77347 16.9369 8.77831 16.8472 8.77831C15.6459 8.87314 14.4943 8.70197 13.3925 8.26481C12.2905 7.82764 11.3318 7.16739 10.5165 6.28406C9.96648 7.18906 9.2594 7.95214 8.39523 8.57331C7.53123 9.19447 6.58381 9.62556 5.55298 9.86656V9.89556C5.52598 11.0251 5.78723 12.0539 6.33673 12.9821C6.88606 13.9102 7.61523 14.6378 8.52423 15.1648ZM11.553 22.7321L7.90873 19.0878L8.95298 18.0341L10.803 19.8591V15.3378H12.303V19.8591L14.153 18.0341L15.1972 19.0878L11.553 22.7321Z" fill="#ABABAB"/>
</g>
</svg>
