<svg width="42" height="45" viewBox="0 0 42 45" fill="none" xmlns="http://www.w3.org/2000/svg">
<g opacity="0.5" filter="url(#filter0_d_140_684)">
<mask id="mask0_140_684" style="mask-type:alpha" maskUnits="userSpaceOnUse" x="7" y="6" width="29" height="29">
<rect x="7" y="6" width="29" height="29" fill="#D9D9D9"/>
</mask>
<g mask="url(#mask0_140_684)">
<path d="M10.625 28.3542V25.9376H13.0417V28.3542H10.625ZM10.625 24.1251V21.7084H13.0417V24.1251H10.625ZM10.625 19.8959V17.4792H13.0417V19.8959H10.625ZM14.8542 32.5834V30.1667H17.2708V32.5834H14.8542ZM17.875 27.7501C17.2104 27.7501 16.6415 27.5135 16.1682 27.0402C15.695 26.5669 15.4583 25.998 15.4583 25.3334V10.8334C15.4583 10.1688 15.695 9.59991 16.1682 9.12664C16.6415 8.65338 17.2104 8.41675 17.875 8.41675H28.75C29.4146 8.41675 29.9835 8.65338 30.4568 9.12664C30.93 9.59991 31.1667 10.1688 31.1667 10.8334V25.3334C31.1667 25.998 30.93 26.5669 30.4568 27.0402C29.9835 27.5135 29.4146 27.7501 28.75 27.7501H17.875ZM19.0833 32.5834V30.1667H21.5V32.5834H19.0833ZM13.0417 32.5834C12.3771 32.5834 11.8082 32.3468 11.3349 31.8735C10.8616 31.4003 10.625 30.8313 10.625 30.1667H13.0417V32.5834ZM23.3125 32.5834V30.1667H25.7292C25.7292 30.8313 25.4925 31.4003 25.0193 31.8735C24.546 32.3468 23.9771 32.5834 23.3125 32.5834ZM10.625 15.6667C10.625 15.0022 10.8616 14.4332 11.3349 13.96C11.8082 13.4867 12.3771 13.2501 13.0417 13.2501V15.6667H10.625Z" fill="#0057FF"/>
</g>
</g>
<defs>
<filter id="filter0_d_140_684" x="-3" y="-2" width="49" height="49" filterUnits="userSpaceOnUse" color-interpolation-filters="sRGB">
<feFlood flood-opacity="0" result="BackgroundImageFix"/>
<feColorMatrix in="SourceAlpha" type="matrix" values="0 0 0 0 0 0 0 0 0 0 0 0 0 0 0 0 0 0 127 0" result="hardAlpha"/>
<feOffset dy="2"/>
<feGaussianBlur stdDeviation="5"/>
<feComposite in2="hardAlpha" operator="out"/>
<feColorMatrix type="matrix" values="0 0 0 0 0 0 0 0 0 0.34 0 0 0 0 1 0 0 0 0.4 0"/>
<feBlend mode="normal" in2="BackgroundImageFix" result="effect1_dropShadow_140_684"/>
<feBlend mode="normal" in="SourceGraphic" in2="effect1_dropShadow_140_684" result="shape"/>
</filter>
</defs>
</svg>
