<svg width="47" height="51" viewBox="0 0 47 51" fill="none" xmlns="http://www.w3.org/2000/svg">
<g filter="url(#filter0_d_140_666)">
<mask id="mask0_140_666" style="mask-type:alpha" maskUnits="userSpaceOnUse" x="6" y="5" width="37" height="37">
<rect x="6" y="5" width="37" height="37" fill="#D9D9D9"/>
</mask>
<g mask="url(#mask0_140_666)">
<path d="M10.625 33.5208V30.4375H13.7083V33.5208H10.625ZM10.625 28.125V25.0417H13.7083V28.125H10.625ZM10.625 22.7292V19.6458H13.7083V22.7292H10.625ZM16.0208 38.9167V35.8333H19.1042V38.9167H16.0208ZM19.875 32.75C19.0271 32.75 18.3012 32.4481 17.6974 31.8443C17.0936 31.2405 16.7917 30.5146 16.7917 29.6667V11.1667C16.7917 10.3188 17.0936 9.59288 17.6974 8.98907C18.3012 8.38525 19.0271 8.08334 19.875 8.08334H33.75C34.5979 8.08334 35.3238 8.38525 35.9276 8.98907C36.5314 9.59288 36.8333 10.3188 36.8333 11.1667V29.6667C36.8333 30.5146 36.5314 31.2405 35.9276 31.8443C35.3238 32.4481 34.5979 32.75 33.75 32.75H19.875ZM21.4167 38.9167V35.8333H24.5V38.9167H21.4167ZM13.7083 38.9167C12.8604 38.9167 12.1345 38.6148 11.5307 38.0109C10.9269 37.4071 10.625 36.6813 10.625 35.8333H13.7083V38.9167ZM26.8125 38.9167V35.8333H29.8958C29.8958 36.6813 29.5939 37.4071 28.9901 38.0109C28.3863 38.6148 27.6604 38.9167 26.8125 38.9167ZM10.625 17.3333C10.625 16.4854 10.9269 15.7596 11.5307 15.1557C12.1345 14.5519 12.8604 14.25 13.7083 14.25V17.3333H10.625Z" fill="#0057FF"/>
</g>
</g>
<defs>
<filter id="filter0_d_140_666" x="-4" y="-3" width="57" height="57" filterUnits="userSpaceOnUse" color-interpolation-filters="sRGB">
<feFlood flood-opacity="0" result="BackgroundImageFix"/>
<feColorMatrix in="SourceAlpha" type="matrix" values="0 0 0 0 0 0 0 0 0 0 0 0 0 0 0 0 0 0 127 0" result="hardAlpha"/>
<feOffset dy="2"/>
<feGaussianBlur stdDeviation="5"/>
<feComposite in2="hardAlpha" operator="out"/>
<feColorMatrix type="matrix" values="0 0 0 0 0 0 0 0 0 0.34 0 0 0 0 1 0 0 0 0.4 0"/>
<feBlend mode="normal" in2="BackgroundImageFix" result="effect1_dropShadow_140_666"/>
<feBlend mode="normal" in="SourceGraphic" in2="effect1_dropShadow_140_666" result="shape"/>
</filter>
</defs>
</svg>
