<svg width="18" height="16" viewBox="0 0 18 16" fill="none" xmlns="http://www.w3.org/2000/svg">
<g clip-path="url(#clip0_85_533)">
<path d="M9.40085 0.268991L11.5321 5.29203L16.9375 5.78013C17.1761 5.80089 17.3526 6.01238 17.3318 6.2524C17.3219 6.36941 17.2669 6.4714 17.1855 6.54308L17.1857 6.54322L13.0964 10.1377L14.3058 15.4654C14.3594 15.7006 14.2132 15.9349 13.9795 15.9888C13.8597 16.0165 13.7404 15.9913 13.645 15.9286L9.00019 13.1334L4.34059 15.9376C4.13497 16.0613 3.86858 15.9939 3.74556 15.7869C3.68575 15.6864 3.67096 15.5712 3.69497 15.4654H3.69456L4.90415 10.1377L0.814765 6.54335C0.634506 6.38456 0.616331 6.10877 0.773939 5.92732C0.854099 5.83502 0.964505 5.78505 1.07708 5.77891L6.46829 5.29203L8.60061 0.26626C8.69447 0.0441213 8.94946 -0.059234 9.17014 0.0352467C9.27865 0.0816678 9.35867 0.16741 9.40085 0.268991ZM10.8348 5.87421L9.00019 1.54994L7.16546 5.87421L7.16491 5.87407C7.10415 6.01756 6.96865 6.12338 6.80345 6.13785L2.15036 6.5581L5.65231 9.63623C5.78103 9.73726 5.84736 9.90766 5.80857 10.0786L4.7677 14.6631L8.76974 12.2545C8.90348 12.1703 9.07818 12.1628 9.22303 12.25L13.2328 14.6631L12.1921 10.0786L12.1925 10.0783C12.1583 9.92691 12.2055 9.76184 12.3297 9.65248L15.8502 6.5581L11.2211 6.14004C11.0572 6.13485 10.9033 6.036 10.8348 5.87421Z" fill="#0057FF"/>
<path d="M10.8348 5.87421L9.00019 1.54994L7.16546 5.87421L7.16491 5.87407C7.10415 6.01756 6.96865 6.12338 6.80345 6.13785L2.15036 6.5581L5.65231 9.63623C5.78103 9.73726 5.84736 9.90766 5.80857 10.0786L4.7677 14.6631L8.76974 12.2545C8.90348 12.1703 9.07818 12.1628 9.22303 12.25L13.2328 14.6631L12.1921 10.0786L12.1925 10.0783C12.1583 9.92691 12.2055 9.76184 12.3297 9.65248L15.8502 6.5581L11.2211 6.14004C11.0572 6.13485 10.9033 6.036 10.8348 5.87421Z" fill="#0057FF"/>
</g>
<defs>
<clipPath id="clip0_85_533">
<rect width="16.6667" height="16" fill="white" transform="translate(0.666626)"/>
</clipPath>
</defs>
</svg>
