<svg width="47" height="47" viewBox="0 0 47 47" fill="none" xmlns="http://www.w3.org/2000/svg">
<g opacity="0.5" filter="url(#filter0_d_140_688)">
<mask id="mask0_140_688" style="mask-type:alpha" maskUnits="userSpaceOnUse" x="9" y="7" width="29" height="29">
<rect x="9" y="7" width="29" height="29" fill="#D9D9D9"/>
</mask>
<g mask="url(#mask0_140_688)">
<path d="M27.7292 34.7916C25.6348 34.7916 23.787 34.1673 22.186 32.9187C20.5849 31.6701 19.5226 30.0791 18.999 28.1458C19.9052 28.186 20.8014 28.0954 21.6875 27.8739C22.5737 27.6523 23.4195 27.3402 24.225 26.9374H29.1792C29.1993 26.7159 29.2145 26.4994 29.2245 26.2879C29.2346 26.0765 29.2396 25.86 29.2396 25.6385C29.2396 25.4572 29.2346 25.2709 29.2245 25.0796C29.2145 24.8883 29.1993 24.702 29.1792 24.5208H27.3969C27.7191 24.1583 28.0162 23.7756 28.2881 23.3728C28.5599 22.9701 28.8066 22.5471 29.0282 22.1041H33.2875C32.8848 21.4999 32.4014 20.9713 31.8375 20.5181C31.2737 20.065 30.6393 19.7176 29.9344 19.476C30.0351 19.0732 30.1006 18.6603 30.1308 18.2374C30.161 17.8145 30.166 17.4017 30.1459 16.9989C32.0792 17.5225 33.6702 18.5848 34.9188 20.1859C36.1674 21.7869 36.7917 23.6346 36.7917 25.7291C36.7917 28.2464 35.9106 30.3862 34.1485 32.1484C32.3863 33.9105 30.2466 34.7916 27.7292 34.7916ZM24.8594 31.7103C24.7184 31.3076 24.5926 30.9149 24.4818 30.5322C24.371 30.1496 24.2754 29.7569 24.1948 29.3541H22.1709C22.5132 29.8576 22.911 30.3107 23.3641 30.7135C23.8172 31.1162 24.3157 31.4485 24.8594 31.7103ZM27.7292 32.1333C27.9709 31.6902 28.1773 31.2371 28.3485 30.7739C28.5197 30.3107 28.6657 29.8374 28.7865 29.3541H26.6719C26.7927 29.8374 26.9438 30.3107 27.125 30.7739C27.3063 31.2371 27.5077 31.6902 27.7292 32.1333ZM30.599 31.7103C31.1427 31.4485 31.6412 31.1162 32.0943 30.7135C32.5474 30.3107 32.9452 29.8576 33.2875 29.3541H31.2636C31.1629 29.7569 31.0622 30.1496 30.9615 30.5322C30.8608 30.9149 30.74 31.3076 30.599 31.7103ZM31.5959 26.9374H34.2542C34.2945 26.736 34.3247 26.5397 34.3448 26.3484C34.365 26.157 34.375 25.9506 34.375 25.7291C34.375 25.5076 34.365 25.3011 34.3448 25.1098C34.3247 24.9185 34.2945 24.7221 34.2542 24.5208H31.5959C31.616 24.702 31.6311 24.8883 31.6412 25.0796C31.6513 25.2709 31.6563 25.4572 31.6563 25.6385C31.6563 25.86 31.6513 26.0765 31.6412 26.2879C31.6311 26.4994 31.616 26.7159 31.5959 26.9374ZM19.2709 26.3333C16.7535 26.3333 14.6138 25.4522 12.8516 23.69C11.0895 21.9279 10.2084 19.7881 10.2084 17.2708C10.2084 14.7534 11.0895 12.6136 12.8516 10.8515C14.6138 9.08933 16.7535 8.20825 19.2709 8.20825C21.7882 8.20825 23.928 9.08933 25.6901 10.8515C27.4523 12.6136 28.3334 14.7534 28.3334 17.2708C28.3334 19.7881 27.4523 21.9279 25.6901 23.69C23.928 25.4522 21.7882 26.3333 19.2709 26.3333ZM16.25 16.6666C16.5924 16.6666 16.8794 16.5508 17.111 16.3192C17.3426 16.0876 17.4584 15.8006 17.4584 15.4583C17.4584 15.1159 17.3426 14.8289 17.111 14.5973C16.8794 14.3657 16.5924 14.2499 16.25 14.2499C15.9077 14.2499 15.6207 14.3657 15.3891 14.5973C15.1575 14.8289 15.0417 15.1159 15.0417 15.4583C15.0417 15.8006 15.1575 16.0876 15.3891 16.3192C15.6207 16.5508 15.9077 16.6666 16.25 16.6666ZM19.2709 21.9833C20.2375 21.9833 21.0985 21.7114 21.8537 21.1676C22.6089 20.6239 23.1577 19.9291 23.5 19.0833H15.0417C15.3841 19.9291 15.9329 20.6239 16.6881 21.1676C17.4433 21.7114 18.3042 21.9833 19.2709 21.9833ZM22.2917 16.6666C22.6341 16.6666 22.921 16.5508 23.1526 16.3192C23.3842 16.0876 23.5 15.8006 23.5 15.4583C23.5 15.1159 23.3842 14.8289 23.1526 14.5973C22.921 14.3657 22.6341 14.2499 22.2917 14.2499C21.9493 14.2499 21.6624 14.3657 21.4308 14.5973C21.1992 14.8289 21.0834 15.1159 21.0834 15.4583C21.0834 15.8006 21.1992 16.0876 21.4308 16.3192C21.6624 16.5508 21.9493 16.6666 22.2917 16.6666Z" fill="#0057FF"/>
</g>
</g>
<defs>
<filter id="filter0_d_140_688" x="-1" y="-1" width="49" height="49" filterUnits="userSpaceOnUse" color-interpolation-filters="sRGB">
<feFlood flood-opacity="0" result="BackgroundImageFix"/>
<feColorMatrix in="SourceAlpha" type="matrix" values="0 0 0 0 0 0 0 0 0 0 0 0 0 0 0 0 0 0 127 0" result="hardAlpha"/>
<feOffset dy="2"/>
<feGaussianBlur stdDeviation="5"/>
<feComposite in2="hardAlpha" operator="out"/>
<feColorMatrix type="matrix" values="0 0 0 0 0 0 0 0 0 0.34 0 0 0 0 1 0 0 0 0.4 0"/>
<feBlend mode="normal" in2="BackgroundImageFix" result="effect1_dropShadow_140_688"/>
<feBlend mode="normal" in="SourceGraphic" in2="effect1_dropShadow_140_688" result="shape"/>
</filter>
</defs>
</svg>
