<svg width="55" height="55" viewBox="0 0 55 55" fill="none" xmlns="http://www.w3.org/2000/svg">
<g filter="url(#filter0_d_140_674)">
<mask id="mask0_140_674" style="mask-type:alpha" maskUnits="userSpaceOnUse" x="9" y="7" width="37" height="37">
<rect x="9" y="7" width="37" height="37" fill="#D9D9D9"/>
</mask>
<g mask="url(#mask0_140_674)">
<path d="M32.8958 42.4583C30.2236 42.4583 27.8662 41.6618 25.8234 40.0688C23.7807 38.4757 22.4254 36.4458 21.7573 33.9792C22.9135 34.0306 24.057 33.9149 25.1875 33.6323C26.3181 33.3497 27.3972 32.9514 28.425 32.4375H34.7458C34.7715 32.1549 34.7908 31.8786 34.8037 31.6089C34.8165 31.3391 34.8229 31.0628 34.8229 30.7802C34.8229 30.549 34.8165 30.3113 34.8037 30.0672C34.7908 29.8231 34.7715 29.5854 34.7458 29.3542H32.4719C32.883 28.8917 33.262 28.4035 33.6089 27.8896C33.9557 27.3757 34.2705 26.8361 34.5531 26.2708H39.9875C39.4736 25.5 38.857 24.8255 38.1375 24.2474C37.4181 23.6693 36.6087 23.226 35.7094 22.9177C35.8379 22.4038 35.9214 21.8771 35.9599 21.3375C35.9984 20.7979 36.0049 20.2712 35.9792 19.7573C38.4458 20.4253 40.4757 21.7807 42.0688 23.8234C43.6618 25.8661 44.4583 28.2236 44.4583 30.8958C44.4583 34.1076 43.3342 36.8377 41.0859 39.0859C38.8377 41.3342 36.1076 42.4583 32.8958 42.4583ZM29.2344 38.5271C29.0545 38.0132 28.8939 37.5122 28.7526 37.024C28.6113 36.5358 28.4892 36.0347 28.3865 35.5208H25.8042C26.241 36.1632 26.7484 36.7413 27.3266 37.2552C27.9047 37.7691 28.5406 38.1931 29.2344 38.5271ZM32.8958 39.0667C33.2042 38.5014 33.4675 37.9233 33.6859 37.3323C33.9043 36.7413 34.0906 36.1375 34.2448 35.5208H31.5469C31.701 36.1375 31.8938 36.7413 32.125 37.3323C32.3563 37.9233 32.6132 38.5014 32.8958 39.0667ZM36.5573 38.5271C37.251 38.1931 37.887 37.7691 38.4651 37.2552C39.0432 36.7413 39.5507 36.1632 39.9875 35.5208H37.4052C37.2767 36.0347 37.1483 36.5358 37.0198 37.024C36.8913 37.5122 36.7372 38.0132 36.5573 38.5271ZM37.8292 32.4375H41.2208C41.2722 32.1806 41.3108 31.93 41.3365 31.6859C41.3622 31.4418 41.375 31.1785 41.375 30.8958C41.375 30.6132 41.3622 30.3498 41.3365 30.1057C41.3108 29.8616 41.2722 29.6111 41.2208 29.3542H37.8292C37.8549 29.5854 37.8741 29.8231 37.887 30.0672C37.8998 30.3113 37.9063 30.549 37.9063 30.7802C37.9063 31.0628 37.8998 31.3391 37.887 31.6089C37.8741 31.8786 37.8549 32.1549 37.8292 32.4375ZM22.1042 31.6667C18.8924 31.6667 16.1623 30.5425 13.9141 28.2943C11.6658 26.046 10.5417 23.316 10.5417 20.1042C10.5417 16.8924 11.6658 14.1623 13.9141 11.9141C16.1623 9.6658 18.8924 8.54166 22.1042 8.54166C25.316 8.54166 28.046 9.6658 30.2943 11.9141C32.5425 14.1623 33.6667 16.8924 33.6667 20.1042C33.6667 23.316 32.5425 26.046 30.2943 28.2943C28.046 30.5425 25.316 31.6667 22.1042 31.6667ZM18.25 19.3333C18.6868 19.3333 19.053 19.1856 19.3484 18.8901C19.6439 18.5946 19.7917 18.2285 19.7917 17.7917C19.7917 17.3549 19.6439 16.9887 19.3484 16.6932C19.053 16.3977 18.6868 16.25 18.25 16.25C17.8132 16.25 17.4471 16.3977 17.1516 16.6932C16.8561 16.9887 16.7083 17.3549 16.7083 17.7917C16.7083 18.2285 16.8561 18.5946 17.1516 18.8901C17.4471 19.1856 17.8132 19.3333 18.25 19.3333ZM22.1042 26.1167C23.3375 26.1167 24.4359 25.7698 25.3995 25.076C26.363 24.3823 27.0632 23.4958 27.5 22.4167H16.7083C17.1451 23.4958 17.8453 24.3823 18.8089 25.076C19.7724 25.7698 20.8708 26.1167 22.1042 26.1167ZM25.9583 19.3333C26.3951 19.3333 26.7613 19.1856 27.0568 18.8901C27.3523 18.5946 27.5 18.2285 27.5 17.7917C27.5 17.3549 27.3523 16.9887 27.0568 16.6932C26.7613 16.3977 26.3951 16.25 25.9583 16.25C25.5215 16.25 25.1554 16.3977 24.8599 16.6932C24.5644 16.9887 24.4167 17.3549 24.4167 17.7917C24.4167 18.2285 24.5644 18.5946 24.8599 18.8901C25.1554 19.1856 25.5215 19.3333 25.9583 19.3333Z" fill="#0057FF"/>
</g>
</g>
<defs>
<filter id="filter0_d_140_674" x="-1" y="-1" width="57" height="57" filterUnits="userSpaceOnUse" color-interpolation-filters="sRGB">
<feFlood flood-opacity="0" result="BackgroundImageFix"/>
<feColorMatrix in="SourceAlpha" type="matrix" values="0 0 0 0 0 0 0 0 0 0 0 0 0 0 0 0 0 0 127 0" result="hardAlpha"/>
<feOffset dy="2"/>
<feGaussianBlur stdDeviation="5"/>
<feComposite in2="hardAlpha" operator="out"/>
<feColorMatrix type="matrix" values="0 0 0 0 0 0 0 0 0 0.34 0 0 0 0 1 0 0 0 0.4 0"/>
<feBlend mode="normal" in2="BackgroundImageFix" result="effect1_dropShadow_140_674"/>
<feBlend mode="normal" in="SourceGraphic" in2="effect1_dropShadow_140_674" result="shape"/>
</filter>
</defs>
</svg>
