<svg width="145" height="27" viewBox="0 0 145 27" fill="none" xmlns="http://www.w3.org/2000/svg">
<path d="M7.78129 26.177C6.85147 25.906 6.19381 25.3822 5.94373 24.4177C5.78137 23.7915 5.86813 23.1926 6.19717 22.659C6.34915 22.4126 6.36577 22.2271 6.25795 21.9844C5.87905 21.1312 5.50051 20.2778 5.13397 19.4192C4.76805 18.5621 4.42115 17.6967 4.05736 16.8386C3.81564 16.2686 3.55889 15.7051 3.30689 15.1341C2.58339 15.1274 1.91242 14.9591 1.40557 14.3981C1.03944 13.9928 0.791704 13.5373 0.8002 12.9438C0.808144 12.389 0.847462 11.8772 1.16654 11.3926C1.67666 10.6178 2.81995 10.1818 3.65958 10.4632C4.04922 10.5938 4.41456 10.7562 4.67931 11.0894C4.8533 11.3083 5.05273 11.3286 5.31547 11.2558C6.18163 11.0156 7.05367 10.797 7.92601 10.5807C8.26567 10.4965 8.16313 10.1962 8.20645 9.98958C8.26993 9.68664 8.26873 9.3684 8.28211 9.05616C8.30953 8.4168 8.31991 7.7766 8.35291 7.1376C8.38693 6.47952 8.44093 5.82246 8.48323 5.16474C8.49421 4.99326 8.44675 4.90602 8.26927 4.78818C7.62037 4.35738 7.20643 3.75561 7.14211 2.92564C7.08637 2.20604 7.31089 1.58456 7.76845 1.08561C8.13121 0.690075 8.61889 0.437547 9.18613 0.405903C9.78205 0.372663 10.3254 0.471981 10.8262 0.843417C11.4875 1.33394 11.9755 2.33303 11.7273 3.11541C11.5398 3.70647 11.7168 4.09902 12.0393 4.53084C13.0204 5.8446 13.9843 7.1718 14.965 8.48598C15.0189 8.55822 15.1758 8.60928 15.2648 8.5872C16.1055 8.37816 16.9433 8.15622 17.7792 7.92804C18.802 7.64886 19.8208 7.35474 20.8443 7.07832C21.2209 6.97662 21.6059 6.9069 22.0074 6.8181C22.0191 6.10302 22.3266 5.51178 22.9003 5.0868C23.4661 4.66764 24.0985 4.50792 24.8033 4.67736C25.4176 4.82508 25.9257 5.13186 26.2409 5.68356C27.0573 7.1124 26.4555 8.96028 24.7026 9.29676C23.9148 9.44796 23.2438 9.2427 22.7164 8.65404C22.3852 8.28438 22.0453 8.49066 21.732 8.5707C20.5463 8.8734 19.3728 9.22518 18.1912 9.54498C17.5166 9.72756 16.8351 9.88392 16.1328 10.058C16.4848 10.5544 16.7998 11.0175 17.1394 11.461C17.2039 11.5451 17.3785 11.6087 17.4816 11.5858C18.8775 11.276 19.9168 12.2378 20.2043 13.4179C20.334 13.9507 20.2158 14.501 19.9777 15.0113C19.9386 15.095 19.9417 15.2474 19.9924 15.3186C20.4969 16.0255 21.0155 16.7219 21.5274 17.4176C22.9449 17.1745 23.7765 17.6125 24.3156 18.7599C24.7862 19.7615 24.5228 20.8688 23.5226 21.6186C22.6192 22.2958 21.4473 22.1768 20.705 21.5302C19.8077 20.7485 19.5608 19.5463 20.206 18.4252C19.9269 18.04 19.6514 17.6544 19.3702 17.2733C19.1031 16.9115 18.8299 16.5544 18.592 16.2386C18.0377 16.1986 17.5124 16.1608 16.9144 16.1177C16.0356 17.0228 15.0742 18.0122 14.1137 19.0024C13.746 19.3815 13.3807 19.763 13.0133 20.1424C12.1583 21.0253 11.2961 21.9011 10.4578 22.8C10.3735 22.8904 10.4044 23.1239 10.43 23.2831C10.6402 24.5892 10.332 25.2399 9.34189 25.922C8.90683 26.2217 8.34415 26.225 7.78129 26.177ZM9.21799 20.9813C9.20425 21.2086 9.19051 21.436 9.17545 21.6851C9.39529 21.4847 9.61669 21.3047 9.81325 21.1001C10.9895 19.8762 12.1583 18.6449 13.3331 17.4194C14.0905 16.6294 14.8576 15.8488 15.6087 15.0525C15.6836 14.9731 15.7159 14.8094 15.7017 14.6931C15.6226 14.0426 15.4924 13.395 15.8664 12.7811C15.9103 12.7091 15.8878 12.545 15.8339 12.4698C15.4233 11.8975 14.9845 11.3459 14.5828 10.7676C14.4373 10.5583 14.2635 10.5438 14.0761 10.5923C13.4263 10.7605 12.7825 10.9522 12.1347 11.1281C11.4565 11.3123 10.7758 11.4868 10.0973 11.6697C9.89365 11.7246 9.69985 11.7968 9.68497 12.064C9.66577 12.4099 9.63955 12.7554 9.61855 13.1012C9.55141 14.206 9.47659 15.3103 9.42091 16.4157C9.34543 17.9153 9.28489 19.4157 9.21799 20.9813ZM5.35315 15.7537C6.06433 17.4095 6.77551 19.0654 7.52761 20.8166C7.57243 20.615 7.60621 20.5165 7.61479 20.4156C7.66309 19.8492 7.71919 19.283 7.74691 18.7154C7.82167 17.1826 7.88239 15.6492 7.95175 14.1162C7.95979 13.9393 7.99309 13.7636 8.00425 13.5866C8.03149 13.1557 8.05261 12.7244 8.07883 12.2443C7.73431 12.3296 7.43191 12.4041 7.12963 12.4793C6.57301 12.6179 6.01549 12.7529 5.46163 12.9022C5.41165 12.9157 5.35465 13.0216 5.35387 13.0852C5.34721 13.6168 5.05465 14.0137 4.77453 14.4179C4.96421 14.8422 5.15623 15.2717 5.35315 15.7537ZM10.0186 6.08592C9.95827 7.398 9.89797 8.71002 9.83647 10.0464C11.012 9.73224 12.156 9.42654 13.3635 9.10386C12.3115 7.66674 11.3162 6.30708 10.2585 4.86204C10.1823 5.03556 10.1083 5.1417 10.0906 5.25672C10.0516 5.5092 10.041 5.76618 10.0186 6.08592ZM22.5772 20.2744C22.6536 20.1823 22.7807 20.098 22.796 19.9963C22.8282 19.7827 22.8613 19.5348 22.7847 19.3471C22.6779 19.0853 22.2339 18.9182 22.0076 19.0034C21.758 19.0975 21.5561 19.2577 21.4944 19.5451C21.3828 20.065 21.9653 20.6422 22.5772 20.2744ZM24.3747 6.2409C24.0522 6.20016 23.8452 6.39246 23.7069 6.6396C23.5643 6.8943 23.5763 7.17324 23.76 7.42182C23.9628 7.69632 24.2582 7.72788 24.5355 7.63824C24.8091 7.5498 24.9596 7.32684 24.971 6.9999C24.9855 6.58386 24.7084 6.42072 24.3747 6.2409ZM2.69069 12.1601C2.64446 12.2085 2.59451 12.2539 2.55263 12.3059C2.37642 12.5249 2.32289 12.9662 2.5155 13.1378C2.69687 13.2994 2.96292 13.4716 3.18055 13.4577C3.53858 13.435 3.74672 13.1026 3.74768 12.7583C3.74922 12.2023 3.35334 11.9554 2.69069 12.1601ZM17.7052 14.5604C18.2326 14.6077 18.6341 14.3841 18.5668 13.7875C18.521 13.3817 18.1437 13.0719 17.7563 13.1912C17.472 13.2787 17.2714 13.4605 17.2295 13.7606C17.1798 14.1164 17.3273 14.3831 17.7052 14.5604ZM9.19993 2.1029C9.07111 2.2622 8.88901 2.40213 8.82481 2.58486C8.69437 2.956 8.80021 3.15759 9.12775 3.33889C9.44587 3.51495 9.73801 3.48898 9.94513 3.21932C10.1104 3.00415 10.2628 2.76221 10.0771 2.46634C9.81967 2.05612 9.64249 1.97246 9.19993 2.1029ZM8.02807 23.1494C7.68871 23.2924 7.50637 23.5157 7.54177 23.9238C7.57879 24.3511 7.94731 24.6451 8.35399 24.5131C8.80189 24.3678 8.92855 24.0247 8.88337 23.7133C8.83705 23.3944 8.48551 23.14 8.02807 23.1494Z" fill="#0057FF"/>
<path d="M33.3584 15.6758H42.2792V17.3174H33.3584V15.6758ZM32.2352 21.3998H30.2696L36.728 6.27979H38.9744L45.4328 21.3998H43.4672L37.8512 8.09418L32.2352 21.3998ZM50.5812 16.7342C47.9028 16.2734 46.5636 15.215 46.5636 13.559C46.5636 12.623 46.9236 11.8526 47.6436 11.2478C48.3636 10.6286 49.2636 10.319 50.3436 10.319C51.3372 10.319 52.23 10.5926 53.022 11.1398C53.8284 11.687 54.4044 12.4214 54.75 13.343L53.1084 13.9262C52.8636 13.2926 52.4964 12.7958 52.0068 12.4358C51.5316 12.0758 50.9916 11.8958 50.3868 11.8958C49.782 11.8958 49.278 12.047 48.8748 12.3494C48.486 12.6518 48.2916 13.0262 48.2916 13.4726C48.2916 13.8902 48.486 14.2286 48.8748 14.4878C49.278 14.747 49.9188 14.9558 50.7972 15.1142C53.6196 15.6038 55.0308 16.7126 55.0308 18.4406C55.0308 19.3478 54.6348 20.111 53.8428 20.7302C53.0652 21.335 52.1148 21.6374 50.9916 21.6374C49.9404 21.6374 48.9828 21.3782 48.1188 20.8598C47.2692 20.3414 46.6644 19.643 46.3044 18.7646L47.8812 18.095C48.1548 18.7142 48.558 19.2038 49.0908 19.5638C49.638 19.9238 50.2572 20.1038 50.9484 20.1038C51.6252 20.1038 52.1868 19.9526 52.6332 19.6502C53.0796 19.3334 53.3028 18.9374 53.3028 18.4622C53.3028 17.627 52.3956 17.051 50.5812 16.7342ZM60.917 16.7342C58.2387 16.2734 56.8995 15.215 56.8995 13.559C56.8995 12.623 57.2595 11.8526 57.9795 11.2478C58.6995 10.6286 59.5994 10.319 60.6794 10.319C61.673 10.319 62.5658 10.5926 63.3578 11.1398C64.1642 11.687 64.7402 12.4214 65.0858 13.343L63.4442 13.9262C63.1994 13.2926 62.8322 12.7958 62.3426 12.4358C61.8674 12.0758 61.3274 11.8958 60.7226 11.8958C60.1178 11.8958 59.6138 12.047 59.2106 12.3494C58.8219 12.6518 58.6275 13.0262 58.6275 13.4726C58.6275 13.8902 58.8219 14.2286 59.2106 14.4878C59.6138 14.747 60.2546 14.9558 61.133 15.1142C63.9554 15.6038 65.3666 16.7126 65.3666 18.4406C65.3666 19.3478 64.9706 20.111 64.1786 20.7302C63.401 21.335 62.4506 21.6374 61.3274 21.6374C60.2762 21.6374 59.3186 21.3782 58.4547 20.8598C57.6051 20.3414 57.0003 19.643 56.6403 18.7646L58.2171 18.095C58.4907 18.7142 58.8939 19.2038 59.4266 19.5638C59.9738 19.9238 60.593 20.1038 61.2842 20.1038C61.961 20.1038 62.5226 19.9526 62.969 19.6502C63.4154 19.3334 63.6386 18.9374 63.6386 18.4622C63.6386 17.627 62.7314 17.051 60.917 16.7342ZM67.4084 8.50458C67.178 8.27418 67.0628 7.99339 67.0628 7.66219C67.0628 7.33099 67.178 7.05739 67.4084 6.84139C67.6388 6.61099 67.9124 6.49578 68.2292 6.49578C68.5604 6.49578 68.834 6.61099 69.05 6.84139C69.2804 7.05739 69.3956 7.33099 69.3956 7.66219C69.3956 7.99339 69.2804 8.27418 69.05 8.50458C68.834 8.72058 68.5604 8.82859 68.2292 8.82859C67.9124 8.82859 67.6388 8.72058 67.4084 8.50458ZM67.3652 21.3998V10.5998H69.0932V21.3998H67.3652ZM75.4298 16.7342C72.7514 16.2734 71.4122 15.215 71.4122 13.559C71.4122 12.623 71.7722 11.8526 72.4922 11.2478C73.2122 10.6286 74.1122 10.319 75.1922 10.319C76.1858 10.319 77.0786 10.5926 77.8706 11.1398C78.677 11.687 79.253 12.4214 79.5986 13.343L77.957 13.9262C77.7122 13.2926 77.345 12.7958 76.8554 12.4358C76.3802 12.0758 75.8402 11.8958 75.2354 11.8958C74.6306 11.8958 74.1266 12.047 73.7234 12.3494C73.3346 12.6518 73.1402 13.0262 73.1402 13.4726C73.1402 13.8902 73.3346 14.2286 73.7234 14.4878C74.1266 14.747 74.7674 14.9558 75.6458 15.1142C78.4682 15.6038 79.8794 16.7126 79.8794 18.4406C79.8794 19.3478 79.4834 20.111 78.6914 20.7302C77.9138 21.335 76.9634 21.6374 75.8402 21.6374C74.789 21.6374 73.8314 21.3782 72.9674 20.8598C72.1178 20.3414 71.513 19.643 71.153 18.7646L72.7298 18.095C73.0034 18.7142 73.4066 19.2038 73.9394 19.5638C74.4866 19.9238 75.1058 20.1038 75.797 20.1038C76.4738 20.1038 77.0354 19.9526 77.4818 19.6502C77.9282 19.3334 78.1514 18.9374 78.1514 18.4622C78.1514 17.627 77.2442 17.051 75.4298 16.7342ZM86.7626 19.7582H88.145V21.3998H86.525C85.4738 21.3998 84.6458 21.1334 84.041 20.6006C83.4362 20.0678 83.1338 19.3478 83.1338 18.4406V12.1982H81.1466V10.5998H83.1338V7.44619L84.8618 7.10059V10.5998H88.145V12.1982H84.8618V18.0518C84.8618 19.1894 85.4954 19.7582 86.7626 19.7582ZM96.587 16.4102L93.4982 16.7774C92.0438 16.9502 91.3166 17.5046 91.3166 18.4406C91.3166 18.9302 91.5182 19.3262 91.9214 19.6286C92.3246 19.9166 92.8646 20.0606 93.5414 20.0606C94.463 20.0606 95.1974 19.787 95.7446 19.2398C96.3062 18.6926 96.587 17.9726 96.587 17.0798H97.343C97.343 18.3902 96.9398 19.4774 96.1334 20.3414C95.327 21.2054 94.319 21.6374 93.1094 21.6374C92.087 21.6374 91.2374 21.3494 90.5606 20.7734C89.8982 20.183 89.567 19.427 89.567 18.5054C89.5814 17.6126 89.8982 16.8854 90.5174 16.3238C91.151 15.7478 92.0222 15.395 93.131 15.2654L96.587 14.8766V14.4446C96.587 13.7822 96.3278 13.2062 95.8094 12.7166C95.291 12.227 94.6574 11.9822 93.9086 11.9822C93.2318 11.9822 92.6342 12.1622 92.1158 12.5222C91.5974 12.8822 91.259 13.3502 91.1006 13.9262L89.5022 13.4078C89.7758 12.5006 90.3086 11.7662 91.1006 11.2046C91.8926 10.643 92.7926 10.3622 93.8006 10.3622C95.0246 10.3622 96.083 10.751 96.9758 11.5286C97.8686 12.2918 98.315 13.2062 98.315 14.2718V21.3998H96.587V16.4102ZM100.8 21.3998V10.5998H102.528V21.3998H100.8ZM108.316 21.3998V15.0062C108.316 14.0846 108.057 13.3574 107.539 12.8246C107.035 12.2918 106.372 12.0254 105.552 12.0254C104.716 12.0254 104.004 12.3206 103.413 12.911C102.823 13.487 102.528 14.1854 102.528 15.0062H101.577C101.577 13.739 102.009 12.6518 102.873 11.7446C103.737 10.823 104.788 10.3622 106.027 10.3622C107.164 10.3622 108.115 10.7582 108.878 11.5502C109.656 12.3422 110.044 13.3718 110.044 14.639V21.3998H108.316ZM117.096 19.7582H118.478V21.3998H116.858C115.807 21.3998 114.979 21.1334 114.374 20.6006C113.769 20.0678 113.467 19.3478 113.467 18.4406V12.1982H111.48V10.5998H113.467V7.44619L115.195 7.10059V10.5998H118.478V12.1982H115.195V18.0518C115.195 19.1894 115.828 19.7582 117.096 19.7582Z" fill="black"/>
<path d="M128.681 15.6758H137.602V17.3174H128.681V15.6758ZM127.558 21.3998H125.592L132.051 6.27979H134.297L140.755 21.3998H138.79L133.174 8.09418L127.558 21.3998ZM144.378 21.3998H142.65V6.27979H144.378V21.3998Z" fill="#0057FF"/>
</svg>
