<svg width="229" height="102" viewBox="0 0 229 102" fill="none" xmlns="http://www.w3.org/2000/svg">
<g filter="url(#filter0_bd_78_903)">
<rect x="20" y="20" width="189" height="62" rx="15" fill="white" fill-opacity="0.7" shape-rendering="crispEdges"/>
<rect x="21" y="21" width="187" height="60" rx="14" stroke="white" stroke-opacity="0.5" stroke-width="2" shape-rendering="crispEdges"/>
<rect x="35" y="66" width="3" height="4" rx="1" fill="#0057FF"/>
<rect x="48" y="55" width="3" height="15" rx="1" fill="#0057FF"/>
<rect x="61" y="49" width="3" height="21" rx="1" fill="#0057FF"/>
<rect x="74" y="59" width="3" height="11" rx="1" fill="#0057FF"/>
<rect x="87" y="42" width="3" height="28" rx="1" fill="#0057FF"/>
<rect x="100" y="36" width="3" height="34" rx="1" fill="#0057FF"/>
<rect opacity="0.1" x="113" y="32" width="3" height="38" rx="1" fill="black"/>
<rect opacity="0.1" x="126" y="42" width="3" height="28" rx="1" fill="black"/>
<rect opacity="0.1" x="139" y="51" width="3" height="19" rx="1" fill="black"/>
<rect opacity="0.1" x="152" y="57" width="3" height="13" rx="1" fill="black"/>
<rect opacity="0.1" x="165" y="45" width="3" height="25" rx="1" fill="black"/>
<rect opacity="0.1" x="178" y="53" width="3" height="17" rx="1" fill="black"/>
<rect opacity="0.1" x="191" y="59" width="3" height="11" rx="1" fill="black"/>
</g>
<defs>
<filter id="filter0_bd_78_903" x="0" y="0" width="229" height="102" filterUnits="userSpaceOnUse" color-interpolation-filters="sRGB">
<feFlood flood-opacity="0" result="BackgroundImageFix"/>
<feGaussianBlur in="BackgroundImageFix" stdDeviation="10"/>
<feComposite in2="SourceAlpha" operator="in" result="effect1_backgroundBlur_78_903"/>
<feColorMatrix in="SourceAlpha" type="matrix" values="0 0 0 0 0 0 0 0 0 0 0 0 0 0 0 0 0 0 127 0" result="hardAlpha"/>
<feOffset/>
<feGaussianBlur stdDeviation="10"/>
<feComposite in2="hardAlpha" operator="out"/>
<feColorMatrix type="matrix" values="0 0 0 0 1 0 0 0 0 1 0 0 0 0 1 0 0 0 0.3 0"/>
<feBlend mode="normal" in2="effect1_backgroundBlur_78_903" result="effect2_dropShadow_78_903"/>
<feBlend mode="normal" in="SourceGraphic" in2="effect2_dropShadow_78_903" result="shape"/>
</filter>
</defs>
</svg>
