<svg width="46" height="46" viewBox="0 0 46 46" fill="none" xmlns="http://www.w3.org/2000/svg">
<mask id="mask0_212_658" style="mask-type:alpha" maskUnits="userSpaceOnUse" x="0" y="0" width="46" height="46">
<rect width="46" height="46" fill="#D9D9D9"/>
</mask>
<g mask="url(#mask0_212_658)">
<path d="M23 25.8749L34.5 18.2083L23 10.5416V25.8749ZM24.3417 36.4166H35.0751C34.8514 37.2471 34.4681 37.918 33.925 38.4291C33.382 38.9402 32.6792 39.2596 31.8167 39.3874L10.925 41.927C9.87088 42.0867 8.92053 41.8392 8.074 41.1843C7.22747 40.5294 6.74032 39.6749 6.61254 38.6208L4.07296 17.6812C3.94518 16.627 4.20074 15.6846 4.83963 14.8541C5.47852 14.0235 6.32504 13.5444 7.37921 13.4166L9.58338 13.1291V16.9624L7.85838 17.202L10.4459 38.1416L24.3417 36.4166ZM17.25 32.5833C16.1959 32.5833 15.2934 32.2079 14.5428 31.4572C13.7921 30.7065 13.4167 29.8041 13.4167 28.7499V7.66659C13.4167 6.61242 13.7921 5.70999 14.5428 4.95929C15.2934 4.2086 16.1959 3.83325 17.25 3.83325H38.3334C39.3875 3.83325 40.29 4.2086 41.0407 4.95929C41.7914 5.70999 42.1667 6.61242 42.1667 7.66659V28.7499C42.1667 29.8041 41.7914 30.7065 41.0407 31.4572C40.29 32.2079 39.3875 32.5833 38.3334 32.5833H17.25ZM17.25 28.7499H38.3334V7.66659H17.25V28.7499Z" fill="#0057FF"/>
</g>
</svg>
